<?xml version="1.0" encoding="UTF-8"?>
<!DOCTYPE svg PUBLIC "-//W3C//DTD SVG 1.1//EN" "http://www.w3.org/Graphics/SVG/1.1/DTD/svg11.dtd">
<!-- Creator: CorelDRAW X7 -->
<svg xmlns="http://www.w3.org/2000/svg" xml:space="preserve" width="20.7193mm" height="18.8833mm" version="1.1" style="shape-rendering:geometricPrecision; text-rendering:geometricPrecision; image-rendering:optimizeQuality; fill-rule:evenodd; clip-rule:evenodd"
viewBox="0 0 240 219"
 xmlns:xlink="http://www.w3.org/1999/xlink">
 <defs>
  <style type="text/css">
   <![CDATA[
    .str0 {stroke:#FEFEFE;stroke-width:0.883987}
    .fil1 {fill:none}
    .fil0 {fill:#FEFEFE;fill-rule:nonzero}
   ]]>
  </style>
 </defs>
 <g id="图层_x0020_1">
  <metadata id="CorelCorpID_0Corel-Layer"/>
  <path class="fil0 str0" d="M163 43c18,90 12,144 -104,152 8,2 50,4 78,-10 49,-26 18,-47 16,-128 0,-2 2,-10 0,-14 -9,-4 -22,-9 -25,-11l60 0c-10,6 -18,4 -25,11z"/>
  <path class="fil0 str0" d="M83 84c9,-8 14,-19 14,-27 0,-2 0,-4 0,-5 -1,-1 -1,-1 -2,-2 -2,0 -5,-1 -10,2 -16,10 -22,40 -13,57 16,39 61,-23 57,-49 6,56 -48,99 -67,54 -9,-21 -3,-57 16,-69 9,-6 16,-7 21,-5 3,1 5,4 7,7 1,3 2,7 1,11 0,10 -5,24 -17,34l-7 -8z"/>
  <rect class="fil1" width="240" height="219"/>
 </g>
</svg>
